<?xml version="1.0" encoding="UTF-8"?>
<svg id="Layer_2" data-name="Layer 2" xmlns="http://www.w3.org/2000/svg" viewBox="0 0 138.71 213.47">
  <defs>
    <style>
      .cls-1 {
        fill: #9bd6cd;
      }

      .cls-2 {
        fill: #fffefe;
      }

      .cls-3 {
        fill: #f27478;
      }
    </style>
  </defs>
  <g id="Layer_1-2" data-name="Layer 1">
    <g id="Paper">
      <g>
        <path class="cls-3" d="M39.9,161.91c-.02.1-.04.38,0,.49l.62,1.98c.61.57.89,1.26.85,2.1-.02.4.37,1.02.49,1.42.22.72.27,1.55.63,2.15.22.37.3.58.4,1.03.27,1.24.52,2.5.96,3.67l.46,1.23c.3.8.59,1.61.81,2.44.13.49.21.91.42,1.32.64,1.24.84,2.77,1.09,3.37s.4,1.1.58,1.7l.65,2.23c.08.26.28.66.37.89-.08.15-.26.53-.13.61l.5.32c.27,2.72.57,2.03,1.07,3.51.31.93.92,1.81,1.12,2.76.08.42-.06.72.34,1.07l.24,1.32c.13.73.91,2.19,1.19,3.07.3.97.71,1.84,1.03,2.8l.37,1.12c.38,1.17,1,2.4.97,3.66-.22.26-.56.72-.55,1.02.39.24.98.62.78,1.03-.13.27-.26.61-.22.69.74-.07,1.23.02,1.47.58.36.82-.54,1.21-.77,1.58l-2.03.17c-.36-.1-.86-.23-1.24-.21l-2.5.11c-.64.03-3.58,0-3-.05l-1.71.15c1.76-.15-5.11.22-3.68.17l-1.4.05c-.5.02-.92-.23-1.3-.55-.47-.39-.59-1.75-.68-2.43s-.4-1.47-.37-2.17c.05-.96-.1-1.84-.24-2.76l-.24-1.57c-.32-2.13.01-4.62-.81-6.33.03-.16.12-.56.11-.74l-.1-1.83c-1.16-2.14,0-2.01-.43-4.15-.15-.75-.36-1.4-.35-2.12.01-1.12-.26-2.89-.4-4.03l-.41-3.42c-.06-.49-.21-.97-.2-1.47.01-.77-.17-1.51-.31-2.19-.1-.49,0-1.12-.22-1.67l-.43-1.05c.35-.51.46-1.11.36-1.77l-.35-2.3c-.07-.47-.05-1.01-.19-1.48-.24-.83-.12-1.64-.2-2.45s-.31-1.54.56-2.05c.72-.42.48-1.31.34-2-.15-.76-.25-1.5-.45-2.26l-.23-.87c-.23-.85-.52-1.57-.67-2.39l-.2-1.14c-.46-2.6-.37-1.06-1.11-3.67l-.59-2.1-.32-1.68-.81-2.5-.58-1.69-.58-1.77c-.2-.61-.55-1.2-.65-1.84l-.43-2.69c-.09-.55-.57-1.14-.54-1.69.04-.69-.2-1.19-.36-1.81-.2-.82-.37-1.59-.65-2.43-.12-.36-.16-.85-.25-1.26-.18-.82-.71-1.69-.56-2.48.1-.53-.1-.81-.29-1.36l-.38-1.07.12-.9c.84-.67,1.65-1.36,2.24-2.27.26-.4.52-.81.79-.98.23.48.67.92.59,1.24-.15.56.01.68.13,1.09l.78,2.72c.07.24.11.63.19.84.27.76.46,1.43.68,2.21.11.41.43.92.57,1.35.34,1.02.74,1.99.99,3.03l.55,2.34c.43,1.83.2,2.2.87,3.59.25.52.56,1.11.74,1.62l.7,2.05c.18.53.42,1.14.55,1.66l.52,2.13c.09.38.23.71.4,1.08.25.55.26,1.36.56,1.84.84,1.35.41,2.09.79,2.86.3.6.42,1.14.61,1.7.31.94.59,1.88.81,2.84.13.57.37,1.13.42,1.8s.45,1.3.8,1.83Z"/>
        <path class="cls-1" d="M138.7,203.15v.14c-.1.69-.39,1.13-1.08,1.48l-1.04.52c-.29.11-.87-.32-1.21-.4-.85-.2-1.76-.08-2.57-.08-.55-.53-1.87-.47-2.52-.28-.13-.12-.35-.42-.49-.41l-.51.04-1.63-.15c-.57-.05-1.03-.1-1.47-.43-.12.1-.49.29-.65.21-.37-.16-.94-.14-1.39-.17l-1.05-.06c-.37-.35-2.33-.54-2.45-.54-2.08.06-.76-.13-2.72-.29l-1.92-.16c-.34-.03-.72-.28-.96-.5-1.01.47-2.4-.69-2.45-1.75l-1.74.08-15.79-41.78,13.58-1.04,1.8,5.18c.2-.94-.75-1.69-.5-2.67l12.39,31.78c.15.38.34.56.42.97.12.63.48,1.4.74,1.95.31-.03,2.6.77,2.41,1.06l1.22.21c.27.42.66.75,1.15.87.97.23.9.64,2.72,1.37.55.22.82.26,1.04.84,3.06.84,1.24.98,2.7,1.42l.92.61c.75,0,1.37.28,1.82.86l.54.23c.22.32.44.64.65.89Z"/>
        <path class="cls-2" d="M104.53,146.73l.19.71c.59,2.24.45.38.85,2.37.19.32.31.72.31,1.07.55.51.78,1.14.95,1.95.08.36.78,2.62,1.17,2.59-.17.41-.25.86,0,1.26l-12.81,1.03c-.89.07-1.16-1.43-1.14-1.98l-.49-.86c-.21-.37-.38-.95-.58-1.24-.26-.34-.44-.76-.66-1.19-.4-.78-.84-1.63-1.24-2.42l-.63-1.23c-.16-.32-.54-.69-.69-1.03l-.26-.6c-.31-.71-.87-1.33-1.28-2.05-.22-.38-.38-.91-.65-1.32l-.54-.81c-.06-1.46-.73-.5-.87-2.15-.05-.59-.83-1.01-1.13-1.47l-.78-1.22-.02-.44c-.39-.37-.5-.96-.73-1.38-.33-.58-1.28-.86-.97-1.77l-.91-.67c-.43-2.13-.64-1.08-.99-2.68l-.74-.61c-.77-.63.45-.46-1.11-1.67.15-.81-.31-1.23-.69-1.8l-.66-.99c-.06-.1,0-.46-.07-.5l-.42-.22-.35-1.1c-.11-.33-.27-.7-.77-.72-.75,1.56.45.75-1.13,2.49-.41.46-.64,1-.94,1.5l-1.2,2-1.35,2.14c-.13.2-.34.45-.46.59-.61,2.54-.86.01-1.82,3.58-.08.31-.6.66-.87.87-.18.82-.52,1.58-1.17,2.14l-.18,1.36c-.51,1.22-1.59,2.1-2.01,3.31-.19.56-.16,1.36-.91,1.55-.17.2-.12.85-.25,1.06l-1.46,2.47c-.26.43-.45.77-.66,1.18l-.67,1.3c-.49.95-.82,1.93-1.55,2.76-.49.55-.96,1.11-1.32,1.76l-1.12,2.02c-.23.42-.63.84-.82,1.38-.06.17-.16.48-.3.48-.92.02.19-.1-1.2.06-.48.05-1.13.26-1.55.26-1.17-.21-2.35.27-3.73.33l-2.12.09c-.44.02-1.08-.2-1.51-.11-.16.03-.45.27-.56.21l-.48-.26c-.42.1-2.25.31-2.42-.24-.12-.39-.26-.85-.6-1.08-1.22-.82.04-1.61-.06-2.57l.46-.36.39-.79c.2-.41.44-1.01.53-1.43l.46-2.23.57-.18c-.06-.73.15-1.23.44-1.8l.51-.98c.16-.3.22-.81.42-1.12.28-.44.32-.96.49-1.41.28-.78.6-1.46.64-2.31.62-.61.9-1.52.76-2.36l.44-.28c.71-1.43.72-2.64,1.17-3.92l.58-1.67c.17-.48.43-.88.59-1.4l.4-1.31.57-1.27c.32-.71.73-1.37.93-2.13l.3-1.13s1.4-3.02,1.59-3.93c.17-.78.43-1.41.72-2.12.53-1.28.74-.64.88-2.34l.54-.52c.05-.61.33-1.14.64-1.6.74-1.12-.06-.9.96-2.5.65-1.02.42-2.66,1.43-3.28l-1.18-.03.89-1.51c.31-.52.87-1.57,1.45-1.81.42-.9.72-1.84,1.58-2.37.38-.23.22-1.15.46-1.44.61-.74,1.08-1.34,1.19-2.44l.56-.28c.04-.34.04-.99.22-1.29,1.09-1.84.27-.96,1.15-1.68.06-.05-.08-.33-.04-.42l.78-1.71.27-.82c.58-.22.74-.93,1.02-1.39l1.31-2.18c.8-1.34.25-1.33.81-1.87.24-.08.6-.25.59-.43-.06-.64.58-.92.66-1.29.1-.51.21-.79.44-1.24l.93-1.85c.14-.29.33-.42.44-.78l.5-.33.09-1.43.75-.36.24-1.54c.44-.7,2.22.19,2.3.3.11.15.22,1.64.07,2.38.24-.26.46-.63.66-1.02l.32.58c.22.4.34.78.45,1.25l.29,1.19c.08.34.76.73.94,1.02.28.63.58,1.29,1.08,1.71-.34,1.25,1.1,1.13.98,1.61l-.16.62.42.71c.76,1.3,1.37,1.41,1.13,2.1.5.49,1.57,2.81,1.72,3.37.08.29.05.63.36.84.4.28.43.63.59.99.34.78.69,1.53,1.12,2.25.18.3.26.54.33.89l.52.77.39.55c.09.12-.1.37-.21.63l.82.73c.09.28.19.61.31.84l.55,1.05c.23.44.39.98.58,1.41.26.57.59,1.01.58,1.71,0,.9,1.28.65.87,1.89-.06.17.18.46.27.6l.9,1.45c.08.29.08.95.29,1.16l.41.4c-.03.39.19.77.31,1.12.29.87.55,1.73,1.14,2.46l-.04,1.02.68,1.22c.89,1.59.19,1.23.92,3.02.7.95,1.05,1.83,1.18,3,1.32,2.04.25,1.03,1.47,3.33.16.3.25.85.39,1.18l.41.93c.18.4.56.9.54,1.39,0,.13.25.41.35.52l1.08,3.21c.09.16.59.46.53.61-.25.61.23,1.26.37,1.73.17.59.27,1.07.51,1.55l.63,1.23c.21.41.03,1.26.42,1.61,1.07.97-.04.65.9,2.29ZM74.74,93.18c-.11-.45-.36-1.2-.74-1.61-.24-.25-1.01,0-1.26.16-.45.05-.71.3-.91.67-.44.8-.35,1.49.13,2.2.22.33.32.65.74.74.33.07.66-.11.95-.38,1.01-.92-.04-.59,1.09-1.78ZM74.16,101.64c.07-.8-.16-1.37-.5-2.26-.03-.08-.24-.08-.35-.1-.46-.54-1.13-.47-1.63-.06-1.07.87-1.15,2.16-.29,3.26.17.22.48.53.71.59.22.05.64-.15.85-.2.7-.16,1.14-.45,1.2-1.23Z"/>
        <path class="cls-1" d="M109.62,97.1c.02-.38-.28-.9-.32-1.24l-.18-1.57c-.16-1.4.57-.06-.41-1.79.12-.27.17-.57.09-.87l-.51-1.9c-.09-.32-.22-.64-.38-.97l-.25-.49c-.05-.1.29-.32.3-.45.04-.42-.28-.98-.47-1.41-.18-.4-.27-.86-.44-1.31.59.12,1.21-.11,1.88-.21l1.33-.2c.58-.09,1.24-.17,1.73-.45.18.11.79.21.86.01l-.43-1.24c-.13-.37-.17-.61-.22-1.1-.02-.27-.56-.26-.9-.23l.59-.45c.33-.25-.49-.66-.51-2.12,0-.37-.28-1.08-.55-1.3-1.08-.85-.34-.64-1.07-2.05-1-.9-.25-.56-1.5-2.35-.21-.3-.39-.53-.68-.75l-.4-.98c-.61.12-1.37-1.46-1.51-1.98l-.58-.48c0-.48-.33-.57-.6-.81s-.45-.48-.89-.65l-.89-1.53c-.12-.2-.61-.33-.75-.47-.2-.21-.42-.53-.67-.65-.3-.15-.62-.03-.96.11h-.72s-.66,1.28-.66,1.28l-.49.95-.45.9c-.21.42-.35.74-.73,1.04-.54.43-.5,1.43-.88,1.87-.52.61-.6,1.14-.75,1.87-.07.34-.32.89-.34,1.27-.53.61-1.05,1.39-.97,2.25l-.59.99c-.25.41-.24.85-.29,1.34-.04.42-.28.95-.34,1.38-.06.38-.21.71-.45.98l-.93-2.11c-.29-.65-1.5-2.88-2.11-3.2-1.38.27-.35-.26-1.61.54l-1.11.71-.42.75-1.03.26c-.43.11-1.33.52-1.09,1.15.19.5.36.95.52,1.51l.88,1.14c.14.18.58.35.72.49.29.32.78.87,1.12,1.16l.6.51c.33.15.56.29.86.5s.9.42.92.78c.03.67.27,1.02.48,1.54,1.11,2.77.56,1.37,1.93,3.76l.77,1.34c.92,1.62.1.95,1.7,2.95l.33-1.06c.1-.33-.44-.99-.42-1.34.11-2.15-.35-.44-.36-2.68,0-1.6-.41-.54-.44-2.22-.01-.59-.63-1.28-.7-1.79.01-.36,0-.68-.09-1.05l-.33-1.27c-.09-.34-.22-.72-.35-1.06.13-.01.42.28.57.34l1.03.36c.23.08.48.15.67.2l.9,1.63c.15.26.53.69.58.95l.16.92c.17.97.7,1.61,1.05,2.55l.62,1.63-.12.67c.17.55.68,1.26.68,1.8v1.27c0,.21-.17.67-.04.88.31.48-.05.9-.31,1.27.03.46.08,1.01.07,1.44l-.86-.03.63,1.66c.48.32.6.93.77,1.52.22.75.78,1.49.94,2.26s.44,1.39.85,2.11c.16.27.27,1.21.97,2.19.52.73.52,1.79.93,2.57.3.56.53,1,.72,1.66,1,3.47,1.51,2.17,1.48,4.43,1.49,1.87.56,2.43,1.22,3.65l.64,1.18.48,1.53c.15.48.47.79.61,1.24l.37,1.23.51,1.08c.36.75.51,1.42.92,2.14.21.37.71,1.78.88,2.25l.56,1.59.84,2.27.68,1.86.45,1.25c.23.65.25,1.38.59,2,.37.68.48,1.47.6,2.24l.69.55.1,1.31c-.34.29-.81.48-1.24.66-1.47.62-1.37.31-3.16.81l-.96.27c-.3.08-.74,0-1.01.05-.89.16-1.66.39-2.57.41-.48.01-1.02.17-1.46.24-.94-1.64.17-1.32-.9-2.29-.39-.35-.21-1.19-.42-1.61l-.63-1.23c-.25-.48-.34-.96-.51-1.55-.14-.47-.62-1.12-.37-1.73.06-.15-.43-.45-.53-.61l-1.08-3.21c-.1-.11-.36-.39-.35-.52.03-.49-.36-.99-.54-1.39l-.41-.93c-.14-.33-.23-.88-.39-1.18-1.22-2.3-.15-1.29-1.47-3.33-.13-1.17-.48-2.05-1.18-3-.74-1.79-.04-1.43-.92-3.02l-.68-1.22.04-1.02c-.58-.73-.85-1.58-1.14-2.46-.12-.35-.33-.73-.31-1.12l-.41-.4c-.21-.21-.2-.87-.29-1.16l-.9-1.45c-.09-.15-.33-.43-.27-.6.41-1.23-.88-.99-.87-1.89,0-.71-.32-1.14-.58-1.71-.2-.43-.35-.97-.58-1.41l-.55-1.05c-.12-.23-.23-.56-.31-.84l-.82-.73c.11-.25.3-.5.21-.63l-.39-.55-.52-.77c-.06-.34-.14-.58-.33-.89-.43-.72-.77-1.47-1.12-2.25-.16-.36-.19-.71-.59-.99-.31-.21-.28-.55-.36-.84-.15-.55-1.22-2.87-1.72-3.37.23-.69-.37-.8-1.13-2.1l-.42-.71.16-.62c.12-.48-1.32-.36-.98-1.61-.5-.42-.8-1.08-1.08-1.71-.18-.29-.86-.68-.94-1.02l-.29-1.19c-.11-.47-.23-.85-.45-1.25l-.32-.58c-.2.39-.43.75-.66,1.02.15-.74.04-2.24-.07-2.38-.08-.11-1.86-1-2.3-.3l-.24,1.54-.75.36-.09,1.43-.5.33c-.11.36-.3.5-.44.78l-.93,1.85c-.23.45-.33.73-.44,1.24-.08.37-.72.65-.66,1.29.02.18-.35.35-.59.43-.56.54,0,.52-.81,1.87l-1.31,2.18c-.28.46-.44,1.17-1.02,1.39l-.27.82-.78,1.71c-.04.08.1.37.04.42-.88.72-.06-.16-1.15,1.68-.18.31-.19.95-.22,1.29l-.56.28c-.11,1.11-.58,1.7-1.19,2.44-.24.29-.08,1.21-.46,1.44-.86.53-1.16,1.47-1.58,2.37v-1.21c.59-1.14.77-2.29.61-3.58.1-.36.34-.93.4-1.29l.36-2.3.05-1.1c.07-1.63,1.02-2.48.9-3.69l5.73-12.19c.61-.6,1.11-1.22,1.6-1.92l2.74-4.01,2.07-3.43c1.31-2.18,1.22-1.01,1.85-1.92l.72-1.03c.13-.19.58-.45.77-.6,1.36-1.04,1.02-1.66,2.04-2.57l1.24-1.1c.51-.45.9-.88,1.34-1.41l.91-1.1c.27-.33,2.42-1.53,2.77-2.97l.82-.56c.27-.18.37-.3.58-.55.37-.45.89-.86,1.3-1.29l.67-.69.81-.84c.2-.2.47-.34.71-.56l.9-.83c.63-.31,1.06-.75,1.35-1.42,2.17-1.02.68-1.04,2.44-1.56.99-2.01,1.19-.96,2.01-2.39l.5.05,1.15-1.19c.43.14.62.04.91-.15,1.59-1.05.48-.84,1.82-1.41l1.15-.49c.5.35,1.26,1.72,1.64,1.65l-.52-1.28c.73-.02,1.22.23,1.91.47,1.82.63,2.39.11,2.79,1.54.15.55.58,1.19.86,1.75.37.76,1.17,1.73,1.32,2l.96,1.72.73,1.2c1.15,1.88,2.13,3.8,3.61,5.48l-.11.69c.53.77.89,1.58,1.08,2.48.86.79,1.36,1.77,1.75,2.87.59,1.65.33,1.74,1.29,2.65.24.32.38.99.61,1.4.27.51.88,1.14.85,1.71-.04.88.48,1.17.81,1.76l1.21,2.2c.15.28.31.89.39,1.22l.3,1.18c.22.86.38,1.73.69,2.53l.78,3.13.63,3.34c.1.51.57,1.03-.1,1.48l.29.9c-.08.13-.32.49-.27.67l.38,1.38c.04.26-.68.32-.92.19l-1.15-.63-.8.46c-.71.07-1.29.26-1.79.62-.99.06-1.8.55-2.58,1.13-.27.03-.79.06-1.02.14l-1.4.48c-1.49.51-1.85.48-3.3,1-.56.2-.9.29-1.52.32-.43.02-1.14.58-1.64.55l-1.3-.48Z"/>
        <path class="cls-1" d="M100.69,32.85c-.31.13-.72.41-1.02.63.18,2.07.29.99.04,3.06-.07.62-.11,1.2-.04,1.76l-.34,1.24-.29.97-.58.34c-.11.06,0,.41-.03.53l-.11.51c-.06.29.53.46.47.67-.76.12-.06.35-1.54.74-.82.21-.68.95-.94.87l-.37-.11c-.26,0-.49-.22-.76-.48-.12.32-.3.93-.55,1.14-.21.17-.81.35-1,.55l-.56.56c-.28.28-.93.37-1.2.6-.7.59-1.87,1.85-2.77,2.03-1.34,1.81-.81-.05-2.02,2.25l-.72.51c-1.32.92-.39.96-1.58,1.58-.21.56-.39,1.26-1.17,1.26l-.67.82c-.08.1-.05.52-.17.57l-.62.29c-.18,1.14-1.43,1.83-1.58,2.05-.61.9-1.31,1.93-1.84,2.9-.36.65-.8,1.13-1.38,1.55-.44.32-.42,1.5-1.39,1.5-.23,1.48-.48.48-.66,1.56-.02.11-.43.07-.52.15-.57.51-1.68,2.12-1.79,2.22-.33.32-.65.56-.89,1.09-.16.35-.53.99-.78,1.25l-.75.79c-.36.37-.57.78-.86,1.17-1.01,1.39-1.82,2.73-2.49,4.34-1.32,1.08-.36.63-1.37,2.19-.37-.56.22-1.04.33-1.58l.71-3.27c-.41-.03-1.15,0-1.48.36l-1.47,1.64c-.66.73-1.21,1.41-1.79,2.14-.08.1-1.51,1.17-1.61,2.61l-1.24,1.26-.54.71c-.07.43-.3.65-.55,1.03-.23.34-.42.63-.71.95-.56.61-.85,1.61-1.66,1.99-.59.27-.6.86-.94,1.23l-1.03,1.14c-.57.63-1.06,1.22-1.46,1.95l-.58,1.03-.81.54-.67.96-2.08,2.89c-.34.47-.94.56-.71,1.33-.42.36-1.08.87-1.42,1.27-.49,1.36-.5.74-1.64,2.3-.9,1.25-.67,1.63-1.53,1.61l-.58-1-.63-1.02c-.92-1.49-1.02-1.11-2.05-2.95-.31-.56-.55-1.32-1.04-1.7-.45-.35-.76-.62-1.01-1.08l-.41-.73c-.29-.52-.82-.99-1.16-1.46.59-.3.81-.97,1.32-1.45l1.29-1.24.68-.95c.08-.12.13-.48.17-.61.03-.1.31-.13.41-.22.71-.55,1.21-1.29,1.55-2.1,2-1.33,1.42-1.8,2.1-2.35,2.13-1.71,3.34-4.47,5.22-6.6,1-2.26,1.39-1.73,2.73-3.7.37-.55.73-1.01,1.29-1.34.11-.5.44-.84.76-1.26l1-1.29,1.3-1.53.99-1.19c.27-.33.48-.78.83-1.06.78-.6,1.28-1.32,1.89-2.09.32-.41.97-.83,1.2-1.29.22-.41-.55.32.72-.97l1.13-1.15c.03-.25.13-.34.3-.54l1.65-2.03c.26-.32.39-.41.56-.83.2-.5.77-.99,1.19-1.33.2-.73.71-1.15,1.25-1.63l.73-.88c.42-.51.8-1,1.17-1.54.16-.24.39-.47.56-.69l1.12-1.43c.25-.32.68-.74.9-1.09.45-.7.88-1.61,1.38-2.2.13-.15.22-.6.2-.8-.06-.55.63-1.07.82-1.49.85-1.87,1.04-1.16,2.13-3.17.2-.36.24-1.07.66-1.16l1.62-.33,1.11.2c.55.1.97.14,1.47.31s.97.3,1.42.4l.36.84.62,1.25c.4.81.73,1.44,1.65,1.89.34.16.93-.22,1.27-.43l1.23-.74,1.94-1.19c.33-.2.68-.42.94-.67l.83-.83,1.1-1.11c.3-.31.35-.72.41-1.17.11-.84.41-1.69.47-2.54.03-.48-.11-.98.13-1.49l.94.09-.05-.66c-.03-.35.76-.23,1.28-1.6.94-2.47.27-1.47.5-2.25.12-.42.17-.7.13-1.17-.06-.63.24-1.49-.29-2l-.55-.52s-.25-.17-.3-.14l-.22.12-.6-.3c-.16-.08-.35.42-.49.56-.39.38-1.01.77-.93,1.46l-.77.74-.95-.92.36-.94c.95-.64.46-1.77.74-1.71-.66-.13-1.09-1-1.91-.67-.76.3-1.87.13-2.63.13-.35,0-1.05.48-2.19.42-.97-.05-1.94.21-2.88.24l-2.24.05c-.27,0-.58.08-.81.17l-.61.23-.84-1.33c.02-.37-.04-.6-.14-.89l-.37-1.03c-.63-1.76-1.47-2.23-1.78-3.67s-.61-1.65-1.32-3.31l-1.13-2.65c-.18-.43-.54-1.04-.63-1.42l-.47-1.9c-.18-.73-.39-1.43-.71-2.05l-.17-.74c-.3-1.31-.57-1.07-1.17-3.26-.12-.45-.38-1.04-.47-1.48.82-.95,1.33,0,2.58-.88.4-.09,1.16.11,1.6.04l1.48-.24c.74-.12,1.42-.16,2.17-.01,1.15.22.31-.51,2.88-.29,2.37.21,1.46.55,4.06.52h.89c.52-.02,1.05.21,1.58.44.46.21,1.01.1,1.43.15l1.84.22,1.13.58c.18.09.63.07.84.07.66.27,1.36.52,2.16.51,2.06,1.2,1.48.37,2.92,1.11s2.85,1.26,4.39,1.53c.3.28.74.72,1.06.83.95.34,1.72.69,2.57,1.15l1.66.89.85.6c.55.39,1.27.41,1.77.95.22.24.69.37.91.53.45.34.77.66,1.35.79.39.09.76.28,1.07.53l.88.72c.97.34,1.75.84,2.55,1.48.43.35,1.24.52,1.62.95s.62.92,1.23,1.08.87.77,1.13,1.3l.85.33c-.19.48-.61.42-.91.57l-1.18.6-1.61.81-1.12.38-1.49.78c-.39.21-.83.32-1.24.47l-.79.28c-.28.1-.77.5-1.04.64-.44.02-.8.18-1.17.47-.2.11-.78-.05-1.02.01l-.93.25c-.79.21-1.63.58-2.45.23-.29.2-.55.25-.9.26-.46,0-.96.44-1.47.55-.37.09-1.16-.08-1.54,0-.17.03-.53.4-.71.35-.45-.13-1.19-.29-1.59.1l-.05,1.39c.27.52.37.96.37,1.54v2.17c.01,1.34-.18,2.38-.06,3.7Z"/>
        <path class="cls-1" d="M36.41,197.65c-.68.66-.2,1.59-1.08,2.07-.56.3-.33.94-.54,1.23-.5.7-.87,1.38-1.22,2.16l-.86,1.89c-.11.23-.59.51-.73.72-.2.3-.35.52-.65.61-.86.28-1.13.42-2,.36-.65-.05-1.97-.17-2.14-.57l.05,1.25-.91.07c-.4.03-.66.06-.95.31h-.88c-.39.01-.79.05-1.16.11-1.07-.09-2.13.56-3.53.62-.54.02-1.15-.06-1.62.31-.3-.03-.74-.06-1.07,0l-1.92.3c-.52.08-1.38-.19-1.91-.24l-.46.35c-.1.07-.39-.19-.53-.18-.43.03-1.29.21-1.7.12-.53-.12-.86-.05-1.31.3l-1.07-.23c-.46-.1-.74-.16-1.18-.09l-1.27.21c-.5.08-1.54-.09-1.96-.36-.57-.6.28-1.26.63-1.62,1.22-1.25.54-.2,2.4-1.52l.83-.58.97-.68.9-.55.87-.6c.39-.27.78-.58,1.24-.68,1.4-.28.9-.81,2.45-1.64l1.55-.84c1.14-.61.74-.86,1.55-1.17.72-.27,1.27-.96,1.89-1.24.71-.33,1.23-.31,1.66-1.08.23-.41.92-.61,1.3-.82.25-.22.53-.48.79-.68l.72-.54c.23-.17.5-.38.77-.54-.13-.43.35-1.75.97-1.94l.39-.98c.35-.38.47-.68.68-1.12.17-.34.88-.7,1.04-1.09.42-1,.84-1.85,1.39-2.75l1.08-1.73c.34-.54.65-1.18,1.03-1.66,1.68-2.1,2.06-3.1,3.41-5.22.14.68.32,1.42.31,2.19,0,.5.14.97.2,1.47l.41,3.42c.14,1.14.41,2.91.4,4.03,0,.72.2,1.37.35,2.12.44,2.14-.72,2,.43,4.15l.1,1.83c.01.19-.08.58-.11.74Z"/>
        <path class="cls-2" d="M103.16,47.19l-1.15.49c-1.34.57-.23.35-1.82,1.41-.29.19-.48.3-.91.15l-1.15,1.19-.5-.05c-.82,1.43-1.02.38-2.01,2.39-1.75.52-.27.54-2.44,1.56-.29.67-.73,1.12-1.35,1.42l-.9.83c-.24.22-.51.36-.71.56l-.81.84-.67.69c-.41.42-.93.84-1.3,1.29-.21.25-.31.37-.58.55l-.82.56c-.35,1.44-2.5,2.64-2.77,2.97l-.91,1.1c-.44.53-.83.96-1.34,1.41l-1.24,1.1c-1.02.91-.69,1.53-2.04,2.57-.2.15-.64.41-.77.6l-.72,1.03c-.64.92-.54-.26-1.85,1.92l-2.07,3.43-2.74,4.01c-.48.71-.98,1.32-1.6,1.92l-5.73,12.19c-.49.18.56-2.91.38-3.28.55-.83.03-1.94.4-1.64l.16.13c-.04-.3-.04-.5.03-.8.19-.8.19-1.76.5-2.49.14-.35.3-.42.27-.81-.04-.59.03-1.28.19-1.81l.27-.93c.08-.28.64-2.8.66-3.02.07-.67.39-1.75.66-2.16,1.02-1.56.06-1.1,1.37-2.19.67-1.61,1.48-2.95,2.49-4.34.28-.39.5-.8.86-1.17l.75-.79c.25-.26.62-.9.78-1.25.24-.53.56-.76.89-1.09.11-.11,1.22-1.72,1.79-2.22.09-.08.51-.04.52-.15.18-1.08.43-.08.66-1.56.97,0,.95-1.17,1.39-1.5.58-.42,1.03-.9,1.38-1.55.53-.97,1.23-2,1.84-2.9.15-.22,1.41-.9,1.58-2.05l.62-.29c.12-.06.09-.47.17-.57l.67-.82c.78,0,.96-.7,1.17-1.26,1.19-.63.26-.66,1.58-1.58l.72-.51c1.21-2.29.68-.44,2.02-2.25.9-.17,2.07-1.44,2.77-2.03.27-.23.92-.32,1.2-.6l.56-.56c.2-.2.79-.38,1-.55.49-.03.93-.33,1.31-.66l.37.11c.26.08.12-.66.94-.87,1.49-.39.79-.61,1.54-.74l.84-.87c1.39-.47,1.37-1.54,2.71-.73.27.17.59.26,1,.4.1.39.03.99-.07,1.54-.05.29.55.61.68.86l.57,1.1c.46.88-1.04,1.91-1.36,2.31Z"/>
        <path class="cls-1" d="M89.51,147.17l-.68.16c-.52-.31-2.95.15-3,.15l-2.02.11-1.69.16c-.52.05-1.09-.02-1.62,0-1.07.04-1.46.1-2.5.25l-1.15.17c-.33.05-.69-.05-1.06-.14-.29-.07-.9.2-1.23.22l-1.13.08c-.43.03-1.04-.1-1.45-.05s-.65.09-1.05-.02c-.53-.14-1.14.14-1.7.19-.61.06-1.25.05-1.86.04l-2.11-.02c-.43,0-.95.14-1.42-.04-.17-.07-.55.12-.7.19-.34-.08-.73-.09-1.09,0l1.46-2.47c.13-.21.08-.86.25-1.06.75-.19.71-.99.91-1.55.42-1.21,1.5-2.09,2.01-3.31l.18-1.36c.65-.56.99-1.33,1.17-2.14.27-.21.79-.56.87-.87.96-3.57,1.22-1.04,1.82-3.58.13-.13.34-.39.46-.59l1.35-2.14,1.2-2c.3-.5.52-1.04.94-1.5,1.58-1.74.38-.94,1.13-2.49.51.02.67.38.77.72l.35,1.1.42.22c.07.04,0,.4.07.5l.66.99c.38.57.84.99.69,1.8,1.56,1.21.34,1.04,1.11,1.67l.74.61c.35,1.6.56.55.99,2.68l.91.67c-.32.91.64,1.19.97,1.77.24.42.34,1.02.73,1.38l.02.44.78,1.22c.29.46,1.07.88,1.13,1.47.14,1.64.81.69.87,2.15l.54.81c.27.41.43.93.65,1.32.4.72.97,1.34,1.28,2.05Z"/>
        <path class="cls-2" d="M36.05,92.64c.34.47.87.94,1.16,1.46l.41.73c.26.47.56.73,1.01,1.08.49.38.73,1.14,1.04,1.7,1.04,1.84,1.13,1.46,2.05,2.95l.63,1.02.58,1c.46,2.36,1.12,2.45.99,4.99l-.09,1.85c-.03.61-.14,1.1-.08,1.7l.11,1.13c-.45.59-1.7.25-2.51.87-.09-1.42.49-1.98-.25-2.85l-.4-.47c-.09-.11-.38.27-.52.38-.54-.28-1.04.1-1.47.26-.64.24-.8.85-.57,1.48s.21,1.47.82,1.84c-.19.38-1.83.73-2.52,1-.57.23-1.08.45-1.65.62l-.87.26c-.69.2-1.39.3-2.15.37-.7.06-1.11-.02-1.6-.58-.59-.67.03-.92-.21-1.11l-.28-.22-.48-1.5c-.6-1.86.31-.26-.73-1.99-.26-.44-.58-.85-.76-1.29l-.71-1.8-.83-2.13c-.17-.43-.25-.75-.4-1.19l-.38-1.11c.69-.51,1.12-1.61,1.92-2.74l1.01-1.41c.38-.53.75-1.05,1.07-1.64,1.01-1.86,1.25-1.12,1.95-2.31l.61-1.04c.22-.37.47-.68.78-1,.08-.19.21-.53.29-.71.17-.35,1.01-.13,1.35-.24.29-.1.79-.2,1.11-.1.23.07.4.5.57.73ZM36.3,100.27c.6-1.23-.05-2.6-.91-3.4l-.69-.05c-.28-.02-.77.14-1.13.23.02.42-.04.35-.18-.04-.45.25-.94.69-.88,1.3.1,1,.48,1.94,1.18,2.68s2.3-.11,2.6-.72ZM39.61,106.02l-.1-1.94c-.02-.33-.47-.87-.78-.96-.33-.1-.92.13-1.32.2-.74.13-1.23,1.05-1.24,1.87.13.25.37.69.51.87l.8.97c1.69-.41,1.05,0,2.11-1Z"/>
        <path class="cls-2" d="M82.86,40.02c-.27-.64-.58-1.37-.73-2.06l-.65-2.92-.6-1.59c.06.16-.98-4.42-1.01-4.65-.08-.59-.13-1.18-.27-1.81-.16-.76-.11-1.55.36-2.09.23-.09.54-.16.81-.17l2.24-.05c.94-.02,1.9-.28,2.88-.24,1.14.06,1.84-.42,2.19-.42.76,0,1.87.18,2.63-.13.82-.33,1.25.54,1.91.67-.28-.05.21,1.08-.74,1.71l-.36.94.95.92.77-.74c-.08-.69.54-1.08.93-1.46.15-.14.33-.64.49-.56l.6.3.22-.12c.05-.03.26.1.3.14l.55.52c.53.51.24,1.37.29,2,.04.47,0,.76-.13,1.17-.23.78.45-.22-.5,2.25-.52,1.37-1.31,1.26-1.28,1.6l.05.66-.94-.09c-.24.51-.09,1.01-.13,1.49-.06.84-.36,1.69-.47,2.54-.06.45-.11.87-.41,1.17l-1.1,1.11-.83.83c-.26.26-.61.47-.94.67l-1.94,1.19-1.23.74c-.35.21-.94.59-1.27.43-.92-.45-1.25-1.08-1.65-1.89l-.62-1.25-.36-.84Z"/>
        <path class="cls-2" d="M107.04,85.1c.17.45.26.91.44,1.31.19.42.51.98.47,1.41-.01.13-.36.35-.3.45l.25.49c.17.33.3.65.38.97l.51,1.9c.08.3.03.59-.09.87.98,1.72.25.38.41,1.79l.18,1.57c.04.35.34.87.32,1.24-.13,2.48,1.09,1.99-1.01,3.77-.53.44-.73-.19-1.17-.34-.5-.17-1.07-.35-1.59-.49l-1.47-.39c-.38-.1-.82-.1-1.24-.07l-.53-.1c-.63.15-1.21.18-1.84.2l-.82.03c-.81.03-1.31-.45-1.57-1.15.01-.43-.04-.98-.07-1.44.26-.37.62-.8.31-1.27-.13-.21.04-.67.04-.88v-1.27c0-.54-.51-1.25-.68-1.8l.12-.67-.62-1.63c-.35-.94-.88-1.58-1.05-2.55l-.16-.92c-.05-.26-.43-.68-.58-.95l-.9-1.63c-.1-.19-.2-.56-.16-.7.13-.47,1.86-1.64,2.59-1.1,2.21-.85,1.71.74,3.32.21.19-.06.59.17.78.22l1.73.49.97.26c.34.09,1.02.07,1.28.23l.92.6c.35.23.66.91.82,1.33ZM102.33,85.44c-.13-.33-.29-.75-.41-.94l-.5-.76c-.65-.22-1.31.17-1.78.68l.08,1.06c.03.37.38.8.69.96.24.12.77.18.97-.02l.95-.97ZM104.94,88.61c-.51-1.45.23-.72-.39-1.45-.23-.27-.29,1.52.04,1.76.09.06.38-.2.34-.31ZM102.71,92.09c.59-.19.81-.68.66-1.19.44-.34.35-.79.11-1.23-.27-.5-.73-.59-1.19-.45-.3.09-.88.36-.91.64-.06.64.05,2.22.68,2.35.13.03.44-.05.65-.12ZM104.42,96.51c.05-.19-.1-.58-.28-.86-.26-.4-1.57-.23-1.9.35-.23.41.21,1.25.86,1.37.44.08,1.22-.43,1.33-.87Z"/>
        <path class="cls-1" d="M45.53,179.76c-.21-.41-.29-.83-.42-1.32-.21-.83-.5-1.63-.81-2.44l-.46-1.23c-.44-1.17-.69-2.44-.96-3.67-.1-.45-.17-.66-.4-1.03-.36-.6-.42-1.43-.63-2.15-.12-.4-.51-1.03-.49-1.42.04-.85-.24-1.53-.85-2.1l-.62-1.98c-.03-.11-.01-.4,0-.49.18-.11.53-.19.79-.21l-.2.7,1.29-.22c.08-.32.4-.73.78-.73h1.64s2.02-.16,2.02-.16c.32-.03.7-.12,1.01-.15l1.31-.15,1.03-.11c.56-.06,1.08-.13,1.66-.13.41,0,.74-.09,1.14-.2.32-.09,1.03.11,1.34,0l1.07-.36.67.68c.34.35.63,1.12.58,1.56l-1.33,1.89c-.25.64-.78,1.17-1.1,1.78l-.94,1.77-1.1,1.84c-.25.43-.46.87-.72,1.27l-.63.98-1.02,1.68c-.19.31-.47.61-.69.92-.25.35-.48.91-.83,1.15-.64.45-.57,1.02-.51,1.64l-1.03,1.49c-.23.33-.41.61-.59.92Z"/>
        <path class="cls-2" d="M29.94,119c.04.67-2.71,1.93-3.46,2.37s-1.14,1.44-1.91,1.84c-.3.15-.7.27-.93.51-.47.49-1.08.9-1.8.87-.72-.38-.48-1.42-1.14-1.6-1.15-.33-1.13-1.04-1.66-2.1l-1.09-2.17-.35-.78-.75-1.32c-.44-.78-.97-1.53-1.5-2.26-.35-.48-.96-.84-1.17-1.43-.36-1.04-.43-.51-1-1.72l-.82-1.75c.12-.26.44-.83.65-1.1.23-.06.65-.22.85-.21l.96.07c.57.04.9.37,1.42-.38l.06.7.85.2.85.2c.33.08.61.09.84.42.17.25.62.24.86.36l1.32.67.98.52c.3.16.67.48.96.7.4-.13.78-.05,1.04.29.31.39.82.46,1.22.69.62.37,2.03,1.57,2.31,2l1.1,1.67c.57.86,1.26,1.65,1.32,2.75Z"/>
        <path class="cls-3" d="M24.08,108.43c-1.08-1.01-.58-.53-2.18-1.34l-1.69-.86c-.3-.15-.87-.37-1.1-.6l-.53-2.11c-.05-.18-.28-.51-.44-.7.11-.9-.46-1.77-.7-2.62l-.55-1.95-.83-2.94c-.12-.42-.2-.96-.41-1.35-.01-.14,0-.5-.05-.62l-.28-.78c-.25-.69-.44-1.27-.55-1.99s-.39-1.42-.6-2.12l-.96-3.23c-.15-.51-.73-1.3-.89-2.32-.04-.27-.39-.74-.42-1.02l-.1-.73-.54-1.19c.01-1.26-.12-2.6-.71-3.69.76-.38,1.56-.78,2.23-1.27l1.69-1.24c.1.99.31,1.82.84,2.6l-.2.82c.87,2.69.76,1.65,1.1,2.19l.56.89c.47,1.33.77,2.24.81,3.61.16.17.39.46.47.69.98,2.82.14.9.53,2.51.06.23-.02.76.06,1l.39,1.27c.11.34.69.74.53,1.15-.27.69-.16,1.56.43,1.99.71,2.16-.3.63.72,3.56.28.81.55,1.68.74,2.51.14.61.21,1.23.42,1.8s.39,1.13.56,1.71l.25.92.36,1.29c-.12,1.15.52,2.64,1.13,3.67.07.11-.02.46-.09.5Z"/>
        <path class="cls-3" d="M109.13,35.43c-.24.04-.47.06-.87.09-.04.5-.62.75-1.09.77-.13,0-.38.31-.49.27l-.45-.19-.22.37c-.05.08-.34-.1-.53-.17l-.34,1.64-.53.76c-.66.28-1.41.5-2.14.68-.14-.31-.32-.7-.52-.73-.14-.02-1.57-.08-1.88-.02l-.42-.6c-.07-.57-.03-1.14.04-1.76.25-2.07.14-.99-.04-3.06.3-.22.71-.5,1.02-.63.41-.17.55-.4.9-.79l.75-.85.67-1.31c.66-1.28,1.31-1.72,1.49-2.02.4-.64,1.81-3.16,2.64-2.96.17-.49.53-.71,1.13-.65.85.08.35,1.73.46,2.39l-.42.41c-.98,1.99-.31,1.28-1.91,2.86.11.66-.18,1-.83,1.18.52.37.91-.19,1.35-.39.52-.23,1.02-.49,1.55-.75l1.03-.52c.57-.93,1.43-1.15,1.99-1.48.18-.11.36-.54.61-.64l1.87-.71c.62-.24,1.18-.1,1.84-.32.43-.14,1.08-.12,1.55-.09.45.03.95-.07,1.44-.16l.58-.1c.19-.03.04.74,1.86.73.22.34.35.74.94.67.13.24.18.96-.03,1.27-.39.57-1.15,1.06-1.79,1.09-.12,0-.44-.1-.56-.11-.1-.01-.18.34-.28.36l-1.37.25-1.25.49-1.39.26c-.32.06-.65.28-.93.45-.5.3-1.08.53-1.4,1.02-1.05,1.58-2.86,1.55-4.07,2.99Z"/>
        <path class="cls-1" d="M12.15,72.12l-.89-1.81c-.03-.07-.23-.24-.27-.29.16.18-.4.22-1.09.9l-.85.85c-.24.24-1.04.41-1.35.27-.56-.24-.53-1.09-.41-1.55.21-.81-.25-1.4-.33-2-.07-.56.05-1.24-.08-1.84l-.39-1.78c-.27-1.25-.43-2.49-.77-3.72l-.7-2.51c-.13-.48-.22-.97-.4-1.47-.16-.44-.33-.93-.44-1.36l-.45-1.75-.39-1.47c-.2-.75-.03-1.75-.4-2.41-.25-.45-.27-.7-.34-1.23-.1-.73-.78-2.9-.77-3,.11-1.18-.18-2.43-.62-3.54-.11-.27-.13-.79-.21-1.09l-.33-1.19c-.23-.85-.36-1.61-.6-2.44l-.07-.23s.12-.13.15-.1c.04.05.15.17.17.23,1.02,2.28.66.8,1.81,3.55l.61,1.46c.19.44.31.92.56,1.31l.98,1.51c.21.32.53,1.86,1.94,4,.19.28.21,1.01.43,1.26.36.41.46.67.6,1.19.11.4.52.97.49,1.36-.05.89.27,1.44.85,2.01l.18.95c.4,2.12.78,1.12,1.35,3.65.17.76.38,1.4.67,2.08l.81,1.94c.41.97.61,2.02,1.11,2.97l.85,1.62.8,2.21.61,1.54c-.18.19-.62.58-.87.7l-.82.4c-.54.06-.89-.68-1.13-1.17Z"/>
        <path class="cls-1" d="M104.62,38.98l.53-.76.34-1.64c.19.07.48.25.53.17l.22-.37.45.19c.11.05.37-.26.49-.27.46-.02,1.05-.27,1.09-.77.39-.03.63-.05.87-.09.8-.12,1.71-.33,2.54-.28l1.12.06c1.68.09,2.54.19,4.22.47l.89.54c.34.21.69.27,1.12.38.37.1.69.77.96.99l.7.57c.51.41.87.81,1.27,1.33.16.21.56.51.55.76-.04.7.35.81.9,1.03.55,1.28-.1,1.89,1.15,2.55-.52.42-1,.9-1.52,1.14-.82.37-1.91.52-2.68.15-.32-.15-.49-.49-.91-.25-.63.36-1.29-.48-3.24-.77-.39-.06-.5-.14-.82-.44-.24-.23-.93-.28-1.28-.46-.4-.2-1.03-.17-1.42-.25-.29-.06-.76-.42-1.05-.5l-.79-.21-1.27-.3c-2.21-.52-1.73-.71-3.2-1.18-.91-.29-1.59-.91-1.76-1.79Z"/>
        <path class="cls-1" d="M41.35,113.11l-1.4,1.08c-.32-.12-.73-.28-.98-.43-.6-.37-.59-1.21-.82-1.84s-.08-1.24.57-1.48c.43-.16.93-.54,1.47-.26.14-.11.43-.49.52-.38l.4.47c.74.87.16,1.43.25,2.85Z"/>
        <path class="cls-1" d="M74.16,101.64c-.07.79-.51,1.07-1.2,1.23-.21.05-.64.25-.85.2-.23-.06-.54-.38-.71-.59-.86-1.1-.78-2.39.29-3.26.5-.41,1.17-.48,1.63.06.11.02.32.02.35.1.33.89.57,1.46.5,2.26Z"/>
        <path class="cls-1" d="M74.74,93.18c-1.13,1.19-.08.85-1.09,1.78-.3.27-.62.46-.95.38-.41-.09-.52-.41-.74-.74-.48-.71-.57-1.4-.13-2.2.2-.37.46-.62.91-.67.25-.15,1.03-.41,1.26-.16.38.41.63,1.16.74,1.61Z"/>
        <path class="cls-2" d="M92.66,81.36l-.18.61.21.32c.05.09-.12.27-.16.37.13.35.26.72.35,1.06l.33,1.27c.1.36.1.69.09,1.05.07.51.68,1.19.7,1.79.03,1.68.44.62.44,2.22,0,2.24.47.53.36,2.68-.02.35.52,1.01.42,1.34l-.33,1.06c-1.6-2-.78-1.33-1.7-2.95l-.77-1.34c-1.36-2.39-.81-.99-1.93-3.76-.21-.52-.45-.87-.48-1.54-.01-.37-.63-.58-.92-.78s-.53-.35-.86-.5l-.6-.51c-.34-.29-.84-.84-1.12-1.16-.15-.14-.59-.31-.72-.49l-.88-1.14c-.16-.56-.33-1.01-.52-1.51-.25-.63.66-1.04,1.09-1.15l1.03-.26.42-.75,1.11-.71c1.26-.8.23-.27,1.61-.54.6.31,1.82,2.55,2.11,3.2l.93,2.11Z"/>
        <path class="cls-1" d="M36.3,100.27c-.3.61-1.92,1.44-2.6.72s-1.08-1.69-1.18-2.68c-.06-.6.43-1.05.88-1.3.14.39.19.46.18.04.36-.09.85-.25,1.13-.23l.69.05c.86.8,1.51,2.17.91,3.4Z"/>
        <path class="cls-1" d="M39.61,106.02c-1.07,1-.43.59-2.11,1l-.8-.97c-.15-.18-.39-.62-.51-.87,0-.82.5-1.74,1.24-1.87.39-.07.99-.3,1.32-.2.31.09.76.63.78.96l.1,1.94Z"/>
        <path class="cls-1" d="M102.33,85.44l-.95.97c-.2.2-.73.14-.97.02-.31-.16-.67-.59-.69-.96l-.08-1.06c.47-.51,1.13-.9,1.78-.68l.5.76c.12.19.28.62.41.94Z"/>
        <path class="cls-1" d="M102.71,92.09c-.21.06-.52.14-.65.12-.63-.13-.74-1.71-.68-2.35.02-.28.61-.54.91-.64.46-.15.93-.05,1.19.45.24.44.33.89-.11,1.23.15.51-.06,1-.66,1.19Z"/>
        <path class="cls-1" d="M104.42,96.51c-.11.44-.89.94-1.33.87-.65-.12-1.09-.96-.86-1.37.33-.59,1.64-.76,1.9-.35.18.28.33.67.28.86Z"/>
      </g>
    </g>
  </g>
</svg>